<svg xmlns="http://www.w3.org/2000/svg" viewBox="0 0 420 72" width="420" height="72">
  <g transform="scale(0.32812500,0.07964602)">

<metadata>
Created by potrace 1.15, written by Peter Selinger 2001-2017
</metadata>
<g transform="translate(0.000000,904.000000) scale(0.100000,-0.100000)"
fill="#000000" stroke="none">
<path d="M6352 8997 c-33 -35 -30 -88 9 -126 l31 -31 -36 0 c-64 0 -175 -29
-248 -66 -147 -72 -252 -171 -338 -316 l-34 -56 -40 38 c-56 54 -99 84 -143
102 -146 59 -247 65 -360 19 -142 -58 -224 -132 -293 -264 l-25 -47 -1278 2
c-1024 2 -1274 1 -1260 -9 9 -7 12 -13 7 -13 -5 0 -10 -9 -11 -19 -1 -14 6
-21 25 -24 15 -2 9 -2 -13 0 -22 2 -57 5 -77 6 -20 1 -42 7 -49 14 -12 12 18
11 84 -2 9 -2 17 1 17 5 0 14 -36 21 -64 14 -16 -4 -26 -2 -26 5 0 6 16 11 35
11 52 0 42 14 -21 29 -42 9 -59 10 -68 1 -7 -7 -7 -13 -1 -18 6 -4 11 -15 11
-25 2 -13 -1 -15 -11 -7 -9 8 -14 5 -18 -11 -8 -30 -42 -21 -42 11 0 19 5 25
23 24 28 -1 28 4 0 16 -18 7 -19 9 -5 9 9 1 17 4 17 9 0 7 -48 32 -63 32 -11
0 -102 44 -146 71 -52 31 -169 124 -231 183 -30 29 -65 56 -78 60 -12 4 -22
12 -22 17 0 5 -6 9 -12 9 -7 0 -26 7 -41 15 -68 35 -276 36 -342 1 -40 -21
-68 -20 -113 3 -84 44 -95 46 -207 46 -62 0 -123 -5 -136 -11 -13 -6 -46 -22
-73 -34 -27 -13 -61 -33 -75 -44 -43 -35 -111 -110 -111 -123 0 -6 -4 -13 -8
-15 -15 -6 -52 -88 -58 -128 -4 -22 -11 -43 -15 -46 -13 -7 -11 -241 1 -249 6
-3 10 -15 10 -27 0 -11 12 -46 26 -78 24 -54 25 -59 10 -82 -19 -29 -55 -186
-56 -239 0 -60 30 -187 58 -243 32 -65 96 -150 128 -171 31 -20 30 -30 -4 -44
-36 -15 -120 -92 -166 -153 -51 -68 -101 -172 -120 -254 -20 -80 -18 -255 3
-337 31 -119 116 -252 214 -336 29 -24 53 -46 55 -50 1 -3 -18 -31 -43 -61
-52 -63 -94 -143 -102 -195 -3 -19 -10 -38 -14 -41 -12 -7 -12 -251 0 -258 4
-3 11 -24 15 -46 8 -54 58 -146 106 -199 37 -40 43 -61 19 -61 -9 0 -105 -65
-124 -85 -110 -111 -191 -241 -224 -357 -6 -21 -16 -54 -22 -74 -14 -45 -19
-242 -9 -309 37 -232 160 -435 333 -550 62 -41 61 -38 11 -95 -32 -35 -73
-114 -97 -185 -29 -87 -29 -267 0 -350 33 -95 84 -179 147 -238 24 -23 27 -30
15 -37 -72 -41 -173 -159 -220 -258 -46 -96 -47 -97 -65 -199 -15 -85 -15 -99
1 -199 27 -173 110 -322 241 -435 l42 -36 -49 -58 c-88 -102 -129 -216 -129
-356 0 -87 4 -111 35 -201 11 -32 10 -42 -10 -85 -44 -95 -55 -144 -54 -247 1
-92 18 -176 40 -200 5 -6 9 -17 9 -26 0 -26 94 -153 138 -188 61 -49 152 -91
220 -103 91 -16 216 0 290 39 l59 29 59 -28 c67 -32 121 -42 214 -41 78 2 90
4 159 32 64 25 94 45 181 120 122 105 194 156 310 217 14 7 33 13 42 13 9 0
19 4 23 9 3 6 13 10 23 10 28 1 86 13 97 21 25 19 198 21 1350 21 677 -1 1248
-1 1270 -1 37 0 42 -3 64 -45 57 -107 179 -210 298 -248 56 -18 247 -24 257
-8 3 5 18 12 33 15 55 14 116 50 174 103 55 51 79 60 79 28 0 -26 140 -200
200 -248 70 -57 193 -123 247 -133 21 -4 44 -11 51 -17 17 -14 276 -13 305 0
12 6 47 19 77 28 141 43 305 183 394 338 15 26 30 47 34 47 4 0 27 -20 51 -44
41 -42 152 -106 183 -106 8 0 19 -5 26 -12 7 -7 50 -11 114 -11 148 -1 236 32
340 129 42 39 108 129 121 167 6 16 63 17 999 18 546 1 1088 3 1203 5 116 2
219 4 230 4 44 1 201 -22 210 -31 5 -5 24 -9 41 -9 18 0 35 -4 39 -10 3 -5 12
-7 19 -4 8 3 17 1 21 -5 3 -6 14 -11 23 -11 47 0 264 -142 357 -233 68 -67
185 -133 255 -143 14 -3 54 -4 90 -4 36 0 76 1 90 4 31 4 107 34 138 54 21 14
28 12 87 -17 72 -36 180 -55 255 -45 57 7 170 43 170 54 0 4 10 10 23 13 12 4
50 34 85 69 146 146 198 384 127 580 -9 24 -19 51 -22 60 -3 10 -9 18 -14 18
-11 0 -12 34 -2 44 8 7 7 5 28 96 26 113 13 247 -32 348 -23 49 -81 131 -115
161 l-27 25 30 22 c43 32 109 93 109 102 0 4 11 19 24 33 55 59 103 177 128
309 11 61 2 250 -12 264 -6 6 -10 21 -10 34 0 29 -60 150 -102 207 -17 22 -61
69 -99 105 l-68 65 52 57 c84 89 132 207 144 349 11 124 -53 315 -133 403 -20
21 -32 42 -27 45 4 4 34 27 66 51 98 73 179 169 226 267 23 48 47 96 52 106
12 23 40 181 46 267 3 36 0 88 -6 115 -5 28 -15 79 -21 114 -7 35 -15 71 -20
80 -5 9 -22 43 -38 76 -48 101 -88 157 -166 230 -87 82 -102 95 -114 95 -4 0
-16 6 -27 13 -17 13 -15 17 30 73 41 50 82 121 91 159 2 6 10 35 19 65 33 115
14 285 -43 395 -30 57 -79 124 -104 143 -15 11 -9 21 66 96 128 127 186 242
207 406 32 255 -82 513 -284 646 l-38 25 57 62 c31 33 63 76 70 93 8 18 18 35
22 38 14 8 41 104 51 176 8 62 -2 201 -17 224 -3 6 -8 20 -9 31 -2 10 -12 34
-22 51 -11 18 -16 36 -11 40 18 21 51 126 64 201 11 68 11 94 0 160 -8 43 -17
85 -21 93 -3 8 -7 17 -7 21 -1 3 -17 36 -35 73 -43 84 -133 169 -228 217 -66
33 -71 34 -190 34 -84 0 -126 -4 -134 -12 -7 -7 -19 -13 -27 -13 -8 0 -35 -10
-59 -22 l-44 -22 -62 21 c-34 12 -85 24 -113 26 -55 6 -182 -7 -211 -21 -10
-5 -35 -17 -57 -28 -21 -10 -80 -57 -131 -105 -93 -86 -225 -180 -300 -212
-22 -10 -48 -22 -58 -28 -9 -5 -39 -12 -65 -16 -26 -3 -53 -11 -61 -17 -10 -8
-384 -12 -1332 -14 l-1318 -2 -27 52 c-33 64 -68 113 -111 151 -48 42 -146
107 -163 107 -8 0 -28 7 -44 15 -32 17 -241 22 -251 6 -3 -5 -19 -12 -35 -16
-49 -11 -121 -55 -175 -107 -57 -55 -44 -60 -118 52 -113 170 -274 277 -489
326 -5 1 -27 2 -50 3 -38 2 -41 4 -21 13 28 13 56 73 49 102 -16 65 -91 89
-134 43z m-4469 -701 c26 -20 23 -81 -5 -100 -30 -21 -47 -20 -75 6 -27 25
-28 39 -8 78 17 33 56 40 88 16z m9111 -21 c15 -32 15 -37 1 -65 -12 -24 -22
-30 -47 -30 -56 0 -79 70 -36 110 34 31 63 26 82 -15z m-8966 -7 c7 -7 12 -25
12 -40 0 -21 -6 -29 -25 -34 -31 -8 -55 10 -55 40 0 26 18 46 40 46 9 0 21 -5
28 -12z m8785 -2 c24 -18 22 -63 -4 -76 -28 -15 -47 -6 -60 27 -9 24 -7 30 11
45 26 21 30 21 53 4z m-143 -31 c16 -20 5 -45 -20 -45 -14 0 -20 7 -20 23 0
38 18 48 40 22z m-9730 -58 c0 -4 -5 -17 -10 -28 -13 -24 -65 -26 -74 -3 -5
12 -1 14 15 9 29 -9 52 13 44 44 -5 25 -5 25 10 7 8 -11 15 -24 15 -29z m1660
32 c0 -11 -55 -18 -99 -12 -27 4 -42 2 -38 -3 3 -6 -11 -11 -31 -12 -35 -1
-36 -1 -12 10 45 20 180 33 180 17z m2263 -10 l-6 -20 -1006 5 c-553 3 -1028
7 -1056 10 -27 3 -81 10 -120 15 -43 5 361 9 1062 10 l1131 1 -5 -21z m5282
10 c-27 -4 -93 -12 -145 -17 -94 -9 -2060 -17 -2060 -8 0 2 -3 11 -6 20 -6 15
98 16 1127 15 625 -1 1112 -5 1084 -10z m1726 -12 c-8 -11 -6 -18 10 -33 17
-15 23 -16 40 -6 21 13 26 3 7 -16 -17 -17 -65 -15 -72 4 -9 24 -7 49 6 62 16
16 24 6 9 -11z m-96 -180 c3 -12 4 -1601 3 -3532 l-3 -3510 -5355 -3 c-2945
-1 -5365 0 -5377 3 l-23 5 0 3514 c0 1933 3 3521 6 3530 6 15 475 16 5375 16
l5369 0 5 -23z m-10857 -7139 c7 -7 11 -21 11 -32 -1 -17 -2 -17 -6 -4 -2 9
-13 20 -24 23 -11 4 -17 11 -14 16 8 12 19 11 33 -3z m11007 -8 c10 -11 13
-20 7 -20 -6 0 -13 4 -17 10 -9 14 -32 1 -39 -23 -3 -11 0 -27 6 -34 7 -9 7
-13 0 -13 -6 0 -14 5 -18 12 -8 13 -7 65 2 79 9 16 40 10 59 -11z m-10047 -56
c32 -22 30 -76 -4 -103 -40 -32 -74 -6 -74 58 0 26 28 61 50 61 3 0 16 -7 28
-16z m3006 7 c3 -5 -1 -12 -10 -15 -27 -10 -2049 -7 -2038 4 5 5 47 11 94 13
195 7 1949 6 1954 -2z m5078 -8 c10 -10 -188 -13 -989 -13 -551 0 -1008 3
-1017 6 -59 23 59 25 995 22 781 -2 1001 -6 1011 -15z m1016 1 c26 -18 30 -68
8 -100 -16 -23 -39 -24 -74 -5 -19 10 -23 19 -20 54 2 33 8 44 28 54 32 16 31
16 58 -3z m-8940 -35 c3 -31 -1 -37 -19 -42 -13 -4 -29 -1 -36 5 -19 15 -16
55 5 67 30 18 47 8 50 -30z m8773 31 c23 -13 25 -52 4 -70 -8 -7 -25 -10 -40
-6 -19 5 -25 13 -25 34 0 27 15 52 33 52 4 0 17 -5 28 -10z m-8651 -19 c0 -11
-5 -23 -11 -27 -15 -9 -33 12 -26 30 9 23 37 20 37 -3z m8517 -1 c4 -23 -13
-44 -31 -37 -9 4 -16 18 -16 32 0 22 4 26 22 23 13 -2 24 -10 25 -18z"/>
<path d="M1047 8013 c-4 -3 -7 -1585 -7 -3515 l0 -3508 5360 0 5360 0 0 3515
0 3515 -5353 0 c-2945 0 -5357 -3 -5360 -7z m10693 -3503 l0 -3490 -5337 2
-5338 3 -3 3475 c-1 1911 0 3481 3 3488 3 9 1081 12 5340 12 l5335 0 0 -3490z"/>
<path d="M6179 8943 c-9 -2 -21 -15 -27 -28 -9 -19 -7 -28 9 -49 24 -31 40
-33 62 -8 23 25 22 69 -2 82 -11 5 -21 9 -23 9 -2 -1 -10 -3 -19 -6z"/>
<path d="M6598 8939 c-25 -14 -24 -71 2 -86 24 -16 49 -7 60 22 9 25 3 65 -10
65 -5 0 -14 2 -22 5 -7 2 -21 0 -30 -6z"/>
<path d="M687 8856 c-27 -21 -19 -70 11 -74 47 -7 69 40 34 71 -22 20 -22 20
-45 3z"/>
<path d="M12056 8854 c-31 -30 -16 -74 24 -74 34 0 45 24 31 64 -12 29 -32 33
-55 10z"/>
<path d="M11963 8853 c-21 -8 -15 -43 6 -43 11 0 23 5 27 11 8 14 -17 38 -33
32z"/>
<path d="M520 8830 c-13 -13 -20 -33 -20 -57 l0 -36 -22 21 c-52 48 -110 48
-158 0 -25 -25 -30 -38 -30 -78 0 -39 5 -54 30 -80 31 -33 38 -46 19 -34 -18
11 -57 -17 -68 -48 -27 -76 60 -134 108 -72 25 31 26 49 7 87 -15 27 -15 27
18 27 23 0 42 9 64 31 31 30 38 53 34 112 -2 27 -2 27 22 12 35 -23 67 -15 93
23 18 27 20 38 12 59 -20 53 -73 69 -109 33z m-120 -125 c0 -20 -5 -25 -25
-25 -18 0 -25 5 -25 18 0 24 8 32 32 32 13 0 18 -7 18 -25z"/>
<path d="M793 8834 c-3 -8 -1 -20 4 -25 14 -14 43 0 43 22 0 24 -38 26 -47 3z"/>
<path d="M12179 8831 c-32 -26 -32 -83 1 -111 31 -27 56 -25 85 5 32 31 33 74
2 103 -29 27 -57 28 -88 3z"/>
<path d="M6020 8810 c0 -27 3 -31 23 -28 16 2 22 10 22 28 0 18 -6 26 -22 28
-20 3 -23 -1 -23 -28z"/>
<path d="M6745 8820 c-8 -26 6 -43 31 -38 13 2 19 12 19 28 0 34 -40 41 -50
10z"/>
<path d="M12347 8786 c-48 -26 -66 -56 -67 -108 0 -64 36 -107 98 -115 39 -5
41 -7 27 -23 -23 -25 -19 -73 8 -98 38 -36 88 -24 104 25 14 41 1 76 -32 93
-17 8 -32 16 -34 18 -3 1 3 8 11 15 9 6 23 28 30 47 35 89 -65 189 -145 146z
m91 -78 c-2 -15 -11 -24 -25 -26 -19 -3 -23 1 -23 22 0 21 5 26 26 26 21 0 25
-4 22 -22z"/>
<path d="M7417 8722 c-23 -25 -22 -65 2 -86 25 -23 49 -18 74 17 l21 27 -21
28 c-25 33 -54 39 -76 14z"/>
<path d="M5328 8723 c-19 -5 -32 -46 -23 -74 10 -31 53 -43 76 -23 23 21 25
67 3 88 -15 16 -25 17 -56 9z"/>
<path d="M7294 8676 c-11 -29 0 -51 26 -51 21 0 25 5 25 30 0 24 -5 31 -23 33
-13 2 -24 -3 -28 -12z"/>
<path d="M7558 8666 c-6 -32 5 -49 28 -44 29 5 26 62 -2 66 -16 2 -23 -3 -26
-22z"/>
<path d="M5194 8665 c-8 -20 2 -44 21 -52 24 -8 39 12 31 41 -7 29 -43 36 -52
11z"/>
<path d="M5462 8671 c-18 -11 -12 -41 10 -55 14 -8 21 -6 33 9 8 11 14 27 12
35 -3 17 -36 24 -55 11z"/>
<path d="M5116 8613 c-12 -12 -6 -43 9 -43 8 0 15 9 15 19 0 21 -13 34 -24 24z"/>
<path d="M5563 8604 c-8 -21 13 -42 28 -27 13 13 5 43 -11 43 -6 0 -13 -7 -17
-16z"/>
<path d="M7202 8604 c2 -11 11 -20 22 -22 13 -3 17 1 14 14 -2 11 -11 20 -22
22 -13 3 -17 -1 -14 -14z"/>
<path d="M7660 8600 c0 -11 6 -20 13 -20 19 0 27 10 20 26 -8 21 -33 17 -33
-6z"/>
<path d="M288 8379 c-26 -15 -22 -54 6 -72 22 -15 25 -15 40 2 22 24 20 58 -3
71 -23 12 -22 12 -43 -1z"/>
<path d="M12453 8383 c-19 -7 -16 -58 5 -76 17 -16 20 -15 40 6 26 28 27 40 6
61 -16 16 -29 19 -51 9z"/>
<path d="M293 8234 c-4 -11 1 -22 12 -31 16 -11 21 -11 34 1 12 12 12 18 1 30
-16 21 -39 20 -47 0z"/>
<path d="M12447 8244 c-4 -4 -7 -16 -7 -26 0 -13 7 -18 26 -18 21 0 25 4 22
22 -3 23 -27 35 -41 22z"/>
<path d="M383 5874 c-8 -21 13 -42 28 -27 13 13 5 43 -11 43 -6 0 -13 -7 -17
-16z"/>
<path d="M12370 5871 c0 -25 19 -38 31 -20 12 19 6 33 -14 37 -11 2 -17 -3
-17 -17z"/>
<path d="M320 5779 c-13 -24 2 -49 31 -49 22 0 35 36 19 55 -17 21 -37 19 -50
-6z"/>
<path d="M12414 5786 c-10 -26 1 -51 22 -54 24 -3 38 20 29 49 -7 22 -43 25
-51 5z"/>
<path d="M284 5654 c-33 -50 14 -107 67 -80 49 24 28 106 -27 106 -14 0 -30
-10 -40 -26z"/>
<path d="M12427 5662 c-23 -26 -21 -68 4 -85 58 -41 116 47 60 90 -23 18 -45
16 -64 -5z"/>
<path d="M326 5501 c-30 -33 11 -78 43 -47 12 12 12 20 3 41 -14 30 -23 31
-46 6z"/>
<path d="M12423 5513 c-18 -7 -16 -60 2 -66 7 -3 23 2 35 11 19 16 20 19 5 40
-17 23 -21 24 -42 15z"/>
<path d="M383 5384 c-8 -21 13 -42 28 -27 13 13 5 43 -11 43 -6 0 -13 -7 -17
-16z"/>
<path d="M12377 5394 c-15 -15 -7 -45 11 -42 9 2 17 12 17 22 0 20 -16 31 -28
20z"/>
<path d="M182 4898 c-16 -16 -15 -33 4 -48 22 -19 54 12 38 37 -14 22 -27 26
-42 11z"/>
<path d="M12560 4891 c-8 -16 -6 -23 12 -35 16 -11 25 -13 35 -4 18 15 16 45
-3 52 -25 10 -33 7 -44 -13z"/>
<path d="M98 4753 c-22 -5 -35 -50 -21 -72 12 -19 52 -25 72 -12 13 8 21 65
10 75 -9 8 -45 13 -61 9z"/>
<path d="M12649 4753 c-38 -10 -31 -80 9 -90 47 -12 79 62 38 89 -12 8 -21 8
-47 1z"/>
<path d="M29 4541 c-44 -44 -35 -107 20 -136 40 -20 44 -19 80 11 41 34 43 86
4 126 -34 36 -67 36 -104 -1z"/>
<path d="M12655 4545 c-31 -30 -34 -94 -7 -117 52 -46 94 -42 126 13 48 82
-54 170 -119 104z"/>
<path d="M99 4297 c-31 -24 -38 -49 -22 -74 16 -24 47 -30 72 -14 21 14 18 69
-5 86 -23 17 -25 18 -45 2z"/>
<path d="M12642 4290 c-21 -23 -22 -51 -3 -74 19 -23 47 -20 65 6 21 30 20 44
-4 68 -25 25 -35 25 -58 0z"/>
<path d="M174 4105 c-9 -23 3 -45 25 -45 20 0 37 32 26 50 -9 15 -45 12 -51
-5z"/>
<path d="M12561 4107 c-15 -19 9 -50 35 -45 23 4 31 37 12 49 -19 12 -34 11
-47 -4z"/>
<path d="M370 3600 c0 -13 7 -20 20 -20 13 0 20 7 20 20 0 13 -7 20 -20 20
-13 0 -20 -7 -20 -20z"/>
<path d="M12375 3610 c-4 -7 -3 -16 3 -22 14 -14 45 -2 40 15 -6 16 -34 21
-43 7z"/>
<path d="M317 3523 c-22 -21 0 -63 33 -63 18 0 32 40 19 56 -12 15 -41 19 -52
7z"/>
<path d="M12421 3516 c-6 -7 -9 -20 -5 -29 15 -41 73 -20 59 22 -7 24 -37 28
-54 7z"/>
<path d="M293 3403 c-16 -11 -23 -26 -23 -48 0 -39 19 -58 56 -53 39 4 54 50
27 86 -24 33 -33 35 -60 15z"/>
<path d="M12440 3402 c-43 -35 -19 -101 36 -102 29 0 44 19 44 57 0 26 -6 36
-29 48 -27 13 -31 13 -51 -3z"/>
<path d="M322 3238 c-17 -17 -15 -43 4 -59 14 -11 19 -10 35 10 18 22 18 25 3
42 -20 22 -26 23 -42 7z"/>
<path d="M12420 3230 c-8 -14 -7 -25 2 -40 15 -24 22 -25 42 -4 19 19 20 36 4
52 -18 18 -36 15 -48 -8z"/>
<path d="M380 3130 c-12 -7 -12 -13 -4 -27 14 -23 28 -22 32 1 5 24 -10 37
-28 26z"/>
<path d="M12382 3127 c-7 -8 -6 -17 3 -30 13 -18 14 -18 23 0 17 33 -4 57 -26
30z"/>
<path d="M270 756 c0 -21 5 -26 26 -26 21 0 25 4 22 23 -2 14 -11 23 -25 25
-19 3 -23 -1 -23 -22z"/>
<path d="M12487 773 c-15 -15 -7 -43 13 -43 15 0 20 7 20 25 0 24 -18 34 -33
18z"/>
<path d="M266 664 c-22 -22 -20 -51 5 -64 46 -25 92 17 68 62 -12 22 -52 24
-73 2z"/>
<path d="M12461 662 c-15 -28 -2 -61 26 -68 28 -7 43 7 43 42 0 42 -50 61 -69
26z"/>
<path d="M291 531 c-39 -54 -17 -121 40 -121 34 0 35 -4 9 -37 -30 -38 -27
-107 6 -150 14 -18 34 -33 44 -33 10 0 21 -4 24 -9 7 -11 87 16 99 32 6 9 10
9 14 0 9 -23 38 -52 53 -54 49 -5 70 2 85 31 14 26 14 34 1 65 -20 48 -58 64
-95 42 -28 -16 -28 -16 -23 8 5 30 -31 88 -66 107 -13 7 -36 11 -52 10 -27 -2
-28 -1 -20 29 11 37 -1 71 -32 93 -34 24 -64 20 -87 -13z m136 -247 c8 -21
-13 -42 -28 -27 -13 13 -5 43 11 43 6 0 13 -7 17 -16z"/>
<path d="M12422 544 c-31 -22 -43 -56 -32 -93 8 -30 7 -31 -20 -29 -38 3 -70
-16 -99 -57 -16 -24 -22 -44 -19 -65 5 -36 2 -37 -29 -8 -20 18 -26 20 -48 10
-15 -7 -33 -28 -41 -47 -13 -31 -13 -39 1 -65 13 -26 21 -30 55 -30 44 0 70
26 70 70 l1 25 17 -28 c35 -56 142 -54 172 4 21 38 17 115 -8 149 l-23 30 35
0 c65 0 90 79 40 125 -32 29 -42 30 -72 9z m-14 -267 c4 -20 -25 -34 -40 -19
-15 15 -1 44 19 40 10 -2 19 -11 21 -21z"/>
<path d="M5122 443 c5 -26 38 -29 38 -4 0 15 -6 21 -21 21 -14 0 -19 -5 -17
-17z"/>
<path d="M5575 450 c-4 -7 -3 -16 3 -22 14 -14 45 -2 40 15 -6 16 -34 21 -43
7z"/>
<path d="M7227 454 c-15 -15 -7 -45 11 -42 9 2 17 12 17 22 0 20 -16 31 -28
20z"/>
<path d="M7683 453 c-18 -7 -16 -43 2 -43 18 0 31 28 19 39 -5 5 -15 6 -21 4z"/>
<path d="M5221 416 c-16 -19 -6 -66 14 -66 8 0 19 10 26 21 9 18 8 25 -8 41
-18 17 -21 17 -32 4z"/>
<path d="M5329 396 c-15 -32 -4 -72 22 -86 48 -26 95 56 55 96 -23 23 -65 18
-77 -10z"/>
<path d="M5473 404 c-15 -39 38 -67 60 -32 8 12 7 21 -2 32 -17 21 -50 20 -58
0z"/>
<path d="M7312 408 c-16 -16 -15 -33 3 -52 20 -20 45 -10 45 18 0 21 -17 46
-30 46 -3 0 -11 -5 -18 -12z"/>
<path d="M7432 397 c-35 -37 -26 -72 24 -100 16 -9 64 31 64 52 0 23 -37 71
-54 71 -7 0 -22 -10 -34 -23z"/>
<path d="M7583 413 c-18 -6 -16 -48 1 -62 12 -10 19 -8 36 9 21 21 21 23 4 41
-18 20 -21 21 -41 12z"/>
<path d="M710 240 c-15 -15 -19 -27 -14 -43 13 -42 50 -49 80 -16 17 19 17 23
3 47 -19 35 -42 39 -69 12z"/>
<path d="M6035 249 c-11 -17 4 -59 21 -59 16 0 34 38 27 58 -6 15 -39 16 -48
1z"/>
<path d="M6767 254 c-13 -13 -7 -55 9 -61 24 -9 51 23 38 45 -12 19 -36 27
-47 16z"/>
<path d="M12023 234 c-18 -28 -12 -48 19 -68 38 -24 67 52 31 80 -25 19 -30
17 -50 -12z"/>
<path d="M831 236 c-17 -20 -3 -46 25 -46 19 0 24 5 24 24 0 13 -7 27 -16 30
-21 8 -20 8 -33 -8z"/>
<path d="M11933 243 c-7 -3 -13 -16 -13 -29 0 -17 6 -24 20 -24 15 0 20 7 20
24 0 27 -8 36 -27 29z"/>
<path d="M6186 185 c-12 -9 -19 -27 -19 -45 0 -26 23 -59 44 -60 13 0 49 43
49 60 0 17 -36 60 -49 60 -3 0 -15 -7 -25 -15z"/>
<path d="M6613 183 c-28 -19 -30 -63 -5 -86 25 -23 39 -21 58 8 32 49 -8 108
-53 78z"/>
<path d="M6370 160 c-29 -29 -27 -94 5 -125 13 -14 35 -25 49 -25 27 0 62 31
72 63 10 30 -5 86 -26 97 -31 16 -78 12 -100 -10z"/>
</g>

  </g>
</svg>
