<?xml version="1.0" standalone="no"?>
<!DOCTYPE svg PUBLIC "-//W3C//DTD SVG 20010904//EN"
 "http://www.w3.org/TR/2001/REC-SVG-20010904/DTD/svg10.dtd">
<svg version="1.0" xmlns="http://www.w3.org/2000/svg"
 width="1280.000000pt" height="967.000000pt" viewBox="0 0 1280.000000 967.000000"
 preserveAspectRatio="xMidYMid meet">
<metadata>
Created by potrace 1.15, written by Peter Selinger 2001-2017
</metadata>
<g transform="translate(0.000000,967.000000) scale(0.100000,-0.100000)"
fill="#000000" stroke="none">
<path d="M12524 9655 c-10 -8 -25 -15 -33 -15 -8 0 -22 -6 -30 -14 -19 -17
-126 -48 -161 -47 -14 0 -51 4 -83 7 -31 3 -70 1 -85 -4 -21 -7 -35 -6 -55 4
-45 24 -111 28 -166 10 -44 -14 -53 -14 -85 -1 -45 19 -93 19 -149 0 -40 -13
-49 -13 -80 0 -46 19 -98 19 -144 0 -31 -13 -40 -13 -80 0 -55 19 -91 19 -146
0 -40 -13 -49 -13 -80 0 -20 8 -52 15 -71 15 -20 0 -55 -7 -79 -15 -40 -13
-49 -13 -80 0 -20 8 -52 15 -72 15 -20 0 -52 -7 -72 -15 -31 -13 -40 -13 -80
0 -24 8 -57 15 -73 15 -16 0 -49 -7 -73 -15 -40 -13 -49 -13 -80 0 -20 8 -52
15 -71 15 -20 0 -55 -7 -79 -15 -40 -13 -49 -13 -80 0 -20 8 -52 15 -72 15
-20 0 -52 -7 -72 -15 -31 -13 -40 -13 -80 0 -24 8 -57 15 -73 15 -16 0 -49 -7
-73 -15 -40 -13 -49 -13 -80 0 -46 19 -93 19 -148 0 -39 -14 -47 -14 -81 0
-49 19 -99 19 -145 0 -31 -13 -40 -13 -80 0 -24 8 -57 15 -73 15 -16 0 -49 -7
-73 -15 -40 -13 -49 -13 -80 0 -46 19 -93 19 -148 0 -39 -14 -47 -14 -81 0
-48 19 -99 19 -144 0 -32 -13 -41 -13 -85 1 -36 12 -63 14 -97 9 -62 -11 -88
-9 -144 6 -41 11 -56 10 -105 -5 -53 -16 -61 -16 -95 -2 -47 20 -82 20 -139 1
-40 -14 -49 -14 -88 0 -55 19 -87 19 -141 0 -38 -13 -47 -13 -87 0 -56 19 -78
19 -136 -1 -43 -15 -51 -15 -87 0 -50 20 -84 20 -141 1 -40 -14 -49 -14 -88 0
-55 19 -87 19 -142 0 -39 -14 -47 -14 -81 0 -49 19 -83 19 -141 -1 -43 -15
-51 -15 -87 0 -50 20 -84 20 -141 1 -40 -14 -49 -14 -88 0 -55 19 -91 19 -141
-1 -37 -15 -43 -15 -80 0 -51 20 -84 20 -143 0 -43 -15 -51 -15 -87 0 -50 20
-84 20 -141 1 -40 -14 -49 -14 -88 0 -55 19 -91 19 -141 -1 -37 -15 -43 -15
-80 0 -51 20 -84 20 -143 0 -43 -15 -51 -15 -87 0 -50 20 -84 20 -141 1 -40
-14 -49 -14 -88 0 -55 19 -91 19 -141 -1 -37 -15 -43 -15 -80 0 -51 20 -84 20
-143 0 -43 -15 -51 -15 -87 0 -50 20 -84 20 -141 1 -40 -14 -49 -14 -88 0 -55
19 -91 19 -141 -1 -31 -13 -46 -14 -71 -5 -42 14 -115 13 -159 -3 -29 -10 -41
-10 -65 0 -41 18 -118 17 -160 0 -31 -13 -39 -13 -70 0 -44 18 -116 18 -160 0
-30 -13 -38 -13 -62 -1 -34 18 -116 19 -163 1 -29 -10 -41 -10 -65 0 -41 18
-118 17 -160 0 -31 -13 -39 -13 -70 0 -44 18 -116 18 -160 0 -30 -13 -38 -13
-62 -1 -34 18 -116 19 -163 1 -29 -10 -41 -10 -65 0 -41 18 -118 17 -160 0
-31 -13 -39 -13 -70 0 -42 17 -120 18 -160 0 -25 -10 -36 -10 -62 1 -40 16
-117 16 -163 -1 -29 -10 -41 -10 -65 0 -41 18 -118 17 -161 -1 -32 -13 -39
-13 -64 0 -35 18 -124 19 -165 1 -25 -10 -36 -10 -62 1 -40 16 -117 16 -163
-1 -29 -10 -41 -10 -65 0 -41 18 -118 17 -161 -1 -32 -13 -39 -13 -64 0 -35
18 -124 19 -165 1 -25 -11 -36 -10 -65 2 -39 16 -151 12 -174 -7 -10 -8 -22
-8 -47 3 -47 19 -351 20 -396 1 -21 -9 -33 -10 -35 -3 -2 5 -40 11 -83 13 -66
2 -89 -2 -133 -21 -35 -16 -56 -32 -62 -50 -6 -14 -17 -32 -24 -40 -22 -22
-17 -110 10 -164 17 -35 21 -56 17 -93 -4 -31 0 -62 11 -90 15 -40 15 -47 1
-80 -19 -46 -19 -107 0 -152 12 -31 12 -40 0 -76 -19 -52 -19 -95 -1 -147 12
-34 12 -46 1 -78 -19 -52 -18 -105 0 -152 14 -34 14 -42 0 -75 -19 -46 -19
-107 0 -152 12 -31 12 -40 0 -76 -19 -52 -19 -95 -1 -147 12 -34 12 -46 1 -78
-18 -51 -18 -102 0 -153 12 -36 12 -45 0 -76 -19 -44 -19 -106 0 -150 12 -31
12 -40 0 -76 -19 -53 -19 -100 0 -146 13 -31 13 -40 0 -80 -19 -56 -19 -104 0
-150 14 -33 14 -40 -1 -80 -18 -46 -15 -143 5 -167 8 -10 7 -25 -4 -56 -19
-54 -19 -100 0 -148 14 -34 14 -42 0 -75 -19 -46 -19 -106 0 -155 14 -34 14
-42 0 -75 -19 -46 -19 -107 0 -152 12 -31 12 -40 0 -76 -19 -52 -19 -96 0
-148 12 -36 12 -45 0 -76 -19 -45 -19 -105 0 -153 12 -29 13 -45 5 -66 -14
-39 -12 -111 4 -151 13 -31 13 -39 0 -70 -17 -42 -18 -120 0 -160 11 -25 11
-37 -1 -69 -17 -51 -17 -120 2 -156 13 -25 13 -32 0 -64 -19 -45 -19 -117 -1
-161 13 -31 13 -39 0 -70 -17 -42 -18 -120 0 -160 11 -25 11 -37 -1 -69 -17
-51 -17 -120 2 -156 13 -25 13 -32 0 -64 -19 -45 -19 -117 -1 -161 13 -31 13
-39 0 -70 -17 -42 -18 -120 0 -160 11 -25 11 -37 -1 -69 -17 -50 -17 -115 1
-157 12 -27 12 -37 0 -65 -18 -43 -18 -116 0 -159 13 -31 13 -39 0 -70 -18
-44 -18 -122 1 -158 13 -25 13 -33 0 -64 -19 -45 -19 -126 0 -163 13 -25 13
-33 -1 -67 -18 -42 -15 -153 5 -177 8 -10 7 -22 -4 -49 -19 -47 -19 -120 0
-157 14 -27 14 -34 0 -66 -19 -46 -19 -127 0 -164 13 -25 13 -32 0 -64 -19
-45 -19 -117 -1 -161 13 -31 13 -39 0 -70 -18 -44 -18 -113 0 -156 12 -29 12
-39 0 -68 -18 -42 -18 -128 0 -161 12 -21 12 -30 0 -59 -18 -44 -18 -124 1
-161 13 -25 13 -32 0 -64 -19 -45 -19 -117 -1 -161 13 -31 13 -39 0 -70 -18
-45 -18 -118 1 -155 14 -27 14 -34 0 -66 -19 -46 -19 -127 0 -164 13 -25 13
-33 -1 -66 -12 -29 -15 -57 -10 -114 7 -91 7 -76 2 -187 -3 -50 -9 -100 -14
-110 -9 -17 -13 -49 -13 -103 0 -14 9 -47 20 -73 19 -43 19 -47 3 -56 -14 -8
-9 -13 30 -31 49 -22 145 -26 182 -7 13 6 37 5 73 -3 46 -11 61 -11 112 3 53
15 63 15 95 2 45 -19 81 -19 139 1 43 15 51 15 87 0 50 -20 86 -20 140 -1 39
14 48 14 97 -2 51 -16 59 -16 116 -1 53 14 66 14 100 2 51 -18 83 -18 138 1
40 14 49 14 88 0 55 -19 87 -19 141 0 39 14 48 14 96 -2 46 -14 60 -15 101 -4
61 16 88 16 141 0 35 -11 50 -11 90 1 59 17 75 17 135 0 40 -12 54 -12 95 0
55 16 70 15 138 -1 44 -11 58 -10 104 5 48 16 56 16 91 2 49 -20 83 -20 140
-1 40 14 49 14 88 0 55 -19 87 -19 141 0 38 13 47 13 87 0 55 -19 81 -19 139
1 42 14 49 14 85 0 49 -20 83 -20 140 -1 40 14 49 14 88 0 55 -19 87 -19 141
0 38 13 47 13 92 -2 44 -14 59 -14 102 -4 68 16 83 17 138 1 41 -12 55 -12 95
0 51 14 64 15 158 5 45 -5 71 -3 98 8 32 14 40 14 64 2 34 -18 128 -19 168 -1
25 10 36 10 62 -1 41 -16 129 -16 168 1 25 10 36 10 62 -1 43 -17 115 -17 159
2 32 13 39 13 64 0 37 -19 120 -19 164 -1 23 10 37 11 44 4 18 -18 143 -22
182 -6 29 12 40 13 65 2 41 -18 118 -17 161 1 32 13 39 13 64 0 35 -18 124
-19 165 -1 25 11 36 10 65 -2 39 -16 151 -12 174 7 10 8 22 7 49 -4 46 -19
118 -19 163 0 32 13 39 13 64 0 35 -18 124 -19 165 -1 25 10 36 10 62 -1 40
-16 117 -16 163 1 29 10 41 10 65 0 41 -18 118 -17 160 0 30 13 38 13 62 1 34
-18 128 -19 168 -1 25 11 36 10 65 -2 39 -16 151 -12 174 7 10 8 22 7 49 -4
46 -19 117 -19 162 -1 30 13 38 13 62 1 34 -18 128 -19 168 -1 25 10 36 10 62
-1 38 -15 104 -17 151 -4 24 7 42 6 67 -5 44 -18 113 -18 158 1 31 13 40 13
71 0 45 -19 107 -19 152 0 31 13 40 13 71 0 45 -19 114 -19 158 -1 31 13 39
13 70 0 44 -18 101 -18 154 1 36 12 45 12 76 0 44 -19 106 -19 152 0 27 11 39
12 49 4 24 -20 135 -23 177 -6 33 14 41 14 72 1 44 -18 101 -18 154 1 36 12
45 12 76 0 44 -19 106 -19 150 -1 31 13 39 13 70 0 44 -18 116 -18 160 0 31
13 39 13 70 0 44 -18 101 -18 155 1 37 13 45 13 70 0 37 -19 111 -19 155 -1
31 13 39 13 70 0 44 -18 116 -18 160 0 31 13 39 13 70 0 44 -18 101 -18 155 1
37 13 45 13 70 0 37 -19 111 -19 155 -1 31 13 39 13 70 0 44 -18 116 -18 160
0 31 13 39 13 72 -1 27 -11 53 -13 93 -8 78 9 98 8 158 -6 49 -12 59 -11 114
8 54 19 64 19 105 7 37 -11 58 -12 109 -2 48 9 73 9 102 0 54 -16 94 -15 143
5 40 16 42 15 56 -2 13 -18 14 -18 29 4 14 20 23 22 58 18 31 -4 55 0 99 20
49 22 61 33 81 73 26 51 29 137 7 163 -7 9 -8 37 -5 78 5 47 2 74 -9 102 -14
33 -14 41 -1 72 7 19 14 55 14 80 0 25 -7 61 -14 80 -13 31 -13 39 0 70 18 44
18 106 0 149 -12 29 -12 40 -1 73 18 50 18 115 1 158 -13 31 -13 39 0 70 18
44 18 116 0 160 -13 31 -13 39 0 70 18 44 18 106 0 149 -12 29 -12 40 -1 73
18 48 18 119 1 158 -10 24 -10 36 0 65 18 47 17 113 0 155 -13 31 -13 39 0 70
7 19 14 55 14 80 0 25 -7 61 -14 80 -13 31 -13 39 0 70 18 44 18 106 0 149
-12 29 -12 40 -1 73 18 50 18 115 1 158 -13 31 -13 39 0 70 18 44 18 116 0
160 -13 31 -13 39 0 70 18 44 18 106 0 149 -12 29 -12 40 -1 73 18 50 18 115
1 158 -13 31 -13 39 0 70 18 44 18 116 0 160 -13 31 -13 39 0 70 18 44 18 106
0 149 -12 29 -12 40 -1 73 18 50 18 115 1 158 -13 31 -13 39 0 70 7 19 14 55
14 80 0 25 -7 61 -14 80 -13 31 -13 39 0 70 18 44 18 106 0 150 -13 31 -13 39
0 70 18 44 18 116 0 160 -13 31 -13 39 0 70 7 19 14 55 14 80 0 25 -7 61 -14
80 -13 31 -13 39 0 70 18 44 18 106 0 150 -13 31 -13 39 0 70 18 44 18 116 0
160 -13 31 -13 39 0 70 7 19 14 55 14 80 0 25 -7 61 -14 80 -13 31 -13 39 0
70 18 45 18 105 -2 154 -12 30 -13 44 -5 60 15 28 13 131 -3 160 -11 21 -11
30 0 57 17 41 17 129 0 169 -10 25 -10 36 1 62 18 43 17 127 -2 163 -14 27
-14 33 0 60 19 36 19 136 1 169 -11 21 -11 30 0 57 17 41 17 129 0 169 -10 25
-10 36 1 62 18 43 17 127 -2 163 -14 27 -14 33 0 60 19 36 19 136 1 169 -11
21 -11 30 0 57 8 19 14 56 14 84 0 28 -6 65 -14 84 -11 27 -11 36 0 57 18 33
18 133 -1 169 -14 27 -14 33 0 60 19 36 19 136 1 169 -11 21 -11 30 0 57 17
41 17 129 0 169 -10 25 -10 36 1 62 18 43 17 127 -2 163 -14 27 -14 33 0 60
19 36 19 136 1 169 -11 21 -11 30 1 60 11 25 13 53 9 101 -9 89 -9 94 -1 180
6 61 4 82 -9 108 -15 29 -15 35 -2 61 14 26 21 110 14 170 -6 54 -90 115 -169
124 -41 5 -60 3 -75 -8z m-12324 -153 c0 -4 -21 -28 -46 -52 -26 -25 -44 -37
-40 -27 3 10 6 27 6 37 0 10 14 24 33 34 36 18 47 20 47 8z m328 -181 c3 -8
-1 -12 -9 -9 -7 2 -15 10 -17 17 -3 8 1 12 9 9 7 -2 15 -10 17 -17z m237 4
c52 -19 107 -19 152 0 33 14 41 14 75 0 48 -19 94 -19 146 -1 34 12 46 12 78
1 51 -19 106 -18 151 0 31 13 40 13 80 0 56 -19 103 -19 151 0 34 14 42 14 75
0 46 -19 93 -19 148 0 39 14 47 14 81 0 48 -19 99 -19 143 -1 29 13 40 13 81
0 60 -18 92 -18 147 1 40 13 49 13 80 0 46 -19 93 -19 148 0 39 14 47 14 81 0
49 -19 99 -19 145 0 31 13 40 13 80 0 55 -19 91 -19 146 0 40 13 49 13 80 0
46 -19 93 -19 146 0 36 12 46 12 82 0 53 -19 100 -19 146 0 31 13 40 13 80 0
24 -8 57 -15 73 -15 16 0 49 7 73 15 40 13 49 13 80 0 46 -19 93 -19 146 0 36
12 46 12 82 0 54 -19 99 -19 149 1 34 14 45 14 71 4 38 -16 106 -16 154 0 27
9 43 9 71 0 46 -15 119 -15 157 1 23 10 37 10 64 0 43 -16 109 -16 161 0 33 9
47 9 72 -1 38 -16 107 -16 155 0 27 9 43 9 71 0 45 -15 104 -15 149 0 26 9 44
9 70 0 46 -15 112 -15 163 1 33 9 47 9 72 -1 38 -16 107 -16 155 0 27 9 43 9
71 0 45 -15 100 -15 153 1 31 9 46 9 70 0 16 -7 49 -13 74 -13 24 0 63 6 85
13 33 9 47 9 72 -1 38 -16 107 -16 155 0 27 9 43 9 71 0 45 -15 100 -15 153 1
31 9 46 9 70 0 16 -7 49 -13 74 -13 24 0 63 6 85 13 33 9 47 9 72 -1 38 -16
107 -16 155 0 27 9 43 9 71 0 45 -15 100 -15 153 1 31 9 46 9 70 0 16 -7 49
-13 74 -13 24 0 63 6 85 13 33 9 47 9 72 -1 39 -16 112 -16 151 1 24 9 39 9
72 -1 52 -15 103 -15 156 1 31 9 46 9 70 -1 36 -14 116 -15 153 -1 20 8 36 7
62 -4 44 -19 116 -19 159 -2 26 11 37 11 62 1 38 -17 120 -17 165 0 29 10 41
10 65 0 41 -18 118 -17 161 1 32 13 39 13 64 0 36 -19 120 -19 163 -2 26 11
37 11 62 1 39 -17 120 -17 167 0 24 9 40 10 46 4 19 -19 134 -22 175 -4 34 14
42 14 67 1 36 -19 120 -19 163 -2 26 11 37 11 62 1 38 -17 120 -17 165 0 29
10 41 10 65 0 40 -17 118 -17 159 0 28 12 38 12 65 0 42 -18 122 -18 164 -1
26 11 37 11 62 1 38 -17 120 -17 165 0 29 10 41 10 65 0 41 -18 118 -17 161 1
32 13 39 13 64 0 35 -18 124 -19 165 -1 25 11 36 10 65 -2 39 -16 151 -12 174
7 10 8 22 7 49 -4 46 -19 118 -19 163 0 32 13 39 13 64 0 31 -16 121 -19 155
-6 12 5 31 3 48 -6 50 -25 117 -27 175 -5 62 24 102 17 102 -19 0 -25 87 -109
113 -109 10 0 29 -7 42 -16 13 -9 33 -13 43 -10 24 8 82 -37 82 -62 0 -10 20
-37 45 -62 33 -33 44 -53 45 -76 0 -17 7 -51 15 -75 14 -39 14 -47 0 -81 -8
-21 -15 -54 -15 -73 0 -19 7 -52 15 -73 14 -34 14 -42 0 -81 -19 -55 -19 -100
0 -149 14 -34 14 -42 0 -81 -19 -55 -19 -87 0 -142 14 -39 14 -47 0 -81 -19
-49 -19 -97 0 -146 14 -34 14 -42 0 -81 -19 -54 -19 -97 0 -150 12 -36 12 -46
0 -82 -19 -53 -19 -86 0 -140 14 -39 14 -47 0 -81 -8 -21 -15 -54 -15 -73 0
-19 7 -52 15 -73 14 -34 14 -42 0 -81 -8 -24 -15 -59 -15 -77 0 -19 7 -51 15
-72 14 -34 14 -42 0 -81 -19 -55 -19 -87 0 -142 14 -39 14 -47 0 -81 -8 -21
-15 -54 -15 -73 0 -19 7 -52 15 -73 14 -34 14 -42 0 -81 -19 -55 -19 -100 0
-149 14 -34 14 -42 0 -81 -19 -55 -19 -87 0 -142 14 -39 14 -47 0 -81 -19 -48
-19 -94 0 -147 12 -36 12 -46 0 -82 -19 -54 -19 -99 1 -149 13 -31 14 -46 5
-71 -15 -44 -14 -103 3 -143 12 -29 12 -40 1 -73 -19 -51 -18 -106 0 -150 14
-33 14 -41 0 -75 -19 -49 -19 -109 0 -155 14 -33 14 -41 0 -75 -19 -48 -19
-108 -1 -152 12 -29 12 -40 1 -73 -19 -51 -18 -106 0 -150 14 -33 14 -41 0
-75 -19 -48 -19 -108 0 -153 12 -31 12 -40 0 -76 -19 -53 -19 -110 -1 -154 13
-31 13 -39 0 -70 -18 -45 -18 -106 1 -152 14 -33 14 -41 0 -75 -19 -47 -19
-103 -1 -154 11 -32 11 -45 0 -74 -17 -48 -17 -113 0 -155 13 -31 13 -39 0
-70 -18 -45 -18 -106 1 -152 14 -33 14 -41 0 -75 -19 -48 -19 -108 -1 -153 13
-31 13 -40 -1 -81 -17 -49 -13 -145 6 -168 8 -10 7 -23 -4 -49 -19 -46 -19
-108 0 -154 14 -33 14 -41 0 -75 -19 -48 -19 -108 0 -153 12 -31 12 -40 0 -76
-19 -53 -19 -110 -1 -154 13 -31 13 -39 0 -70 -18 -44 -18 -101 1 -154 12 -36
12 -45 0 -76 -19 -44 -19 -106 -1 -150 13 -31 13 -39 0 -70 -18 -44 -18 -106
1 -150 12 -31 12 -40 0 -76 -19 -53 -19 -110 -1 -154 13 -31 13 -39 0 -70 -18
-45 -18 -106 1 -152 14 -33 14 -40 -1 -80 -12 -30 -15 -59 -11 -98 6 -55 5
-55 -21 -55 -15 0 -36 -6 -47 -14 -11 -7 -32 -16 -47 -20 -16 -3 -28 -10 -28
-15 0 -4 -14 -25 -30 -46 -17 -21 -30 -48 -30 -61 0 -12 -5 -26 -11 -30 -6 -3
-9 -20 -6 -38 6 -42 -9 -71 -49 -92 -34 -18 -104 -94 -104 -113 0 -19 -18 -21
-54 -6 -46 19 -105 19 -155 -1 -36 -14 -42 -14 -70 0 -38 20 -111 21 -156 2
-31 -13 -39 -13 -70 0 -44 18 -113 18 -158 -1 -31 -13 -40 -13 -71 0 -46 19
-106 19 -155 -1 -36 -14 -42 -14 -70 0 -38 20 -111 21 -156 2 -31 -13 -39 -13
-70 0 -44 18 -113 18 -158 -1 -31 -13 -40 -13 -71 0 -46 19 -106 19 -155 -1
-36 -14 -42 -14 -70 0 -38 20 -111 21 -156 2 -31 -13 -39 -13 -70 0 -44 18
-113 18 -158 -1 -31 -13 -40 -13 -71 0 -46 19 -106 19 -155 -1 -36 -14 -42
-14 -70 0 -38 20 -111 21 -156 2 -31 -13 -39 -13 -70 0 -44 18 -113 18 -158
-1 -31 -13 -40 -13 -71 0 -46 19 -106 19 -155 -1 -36 -14 -42 -14 -70 0 -38
20 -111 21 -156 2 -31 -13 -39 -13 -70 0 -44 18 -113 18 -158 -1 -31 -13 -40
-13 -71 0 -42 18 -101 19 -145 4 -25 -9 -40 -8 -71 5 -50 20 -100 20 -147 1
-31 -13 -40 -13 -80 0 -55 19 -91 19 -145 0 -38 -12 -49 -12 -83 0 -52 18 -94
18 -148 0 -40 -13 -49 -13 -80 0 -46 19 -98 19 -144 0 -31 -13 -40 -13 -80 0
-55 19 -91 19 -145 0 -38 -12 -49 -12 -83 0 -52 19 -93 18 -146 0 -39 -14 -47
-14 -81 0 -49 19 -99 19 -145 0 -31 -13 -40 -13 -80 0 -55 19 -91 19 -145 0
-38 -12 -49 -12 -83 0 -52 19 -93 18 -146 0 -39 -14 -47 -14 -81 0 -49 19 -99
19 -145 0 -31 -13 -40 -13 -80 0 -55 19 -91 19 -146 0 -40 -13 -49 -13 -80 0
-46 19 -93 19 -148 0 -39 -14 -47 -14 -81 0 -49 19 -99 19 -145 0 -31 -13 -40
-13 -80 0 -55 19 -91 19 -146 0 -40 -13 -49 -13 -80 0 -46 19 -93 19 -148 0
-39 -14 -47 -14 -81 0 -49 19 -99 19 -145 0 -31 -13 -40 -13 -80 0 -55 19 -91
19 -146 0 -40 -13 -49 -13 -80 0 -46 19 -93 19 -148 0 -32 -12 -50 -13 -73 -5
-40 14 -125 12 -161 -4 -25 -11 -35 -11 -59 1 -22 11 -47 13 -100 9 -88 -8
-104 -8 -192 0 -53 4 -78 2 -100 -9 -24 -12 -34 -12 -59 -1 -39 17 -131 17
-170 0 -25 -11 -35 -11 -59 1 -22 11 -47 13 -100 9 -88 -8 -104 -8 -192 0 -54
5 -78 2 -100 -9 -25 -13 -33 -13 -54 -1 -32 17 -136 17 -175 0 -25 -11 -35
-11 -59 1 -22 11 -47 13 -100 9 -88 -8 -104 -8 -192 0 -54 5 -78 2 -100 -9
-25 -13 -33 -13 -54 -1 -32 17 -136 17 -175 0 -25 -11 -35 -11 -59 1 -22 11
-47 13 -100 9 -89 -8 -106 -8 -186 0 -48 4 -75 2 -101 -9 -30 -12 -39 -12 -60
-1 -31 17 -135 17 -174 0 -25 -11 -35 -11 -59 1 -20 11 -47 13 -95 9 -89 -8
-115 -8 -191 -1 -48 5 -75 3 -101 -8 -30 -12 -39 -12 -60 -1 -31 17 -135 17
-174 0 -46 -20 -70 -4 -90 61 -10 30 -24 60 -32 66 -8 7 -26 24 -40 40 -15 15
-35 27 -45 27 -11 0 -26 7 -34 15 -9 8 -31 15 -50 15 -36 0 -84 38 -84 67 0 8
-16 34 -36 58 -20 24 -45 66 -55 94 -16 46 -16 55 -3 86 18 45 18 106 -1 152
-14 33 -14 41 0 75 19 49 19 108 0 154 -13 31 -13 40 0 71 19 45 19 111 0 156
-13 31 -13 40 0 71 19 46 19 107 0 153 -14 33 -14 41 0 75 19 48 19 108 1 153
-13 31 -13 39 0 70 18 44 18 106 -1 150 -12 31 -12 40 0 76 19 53 19 107 0
152 -13 31 -13 40 0 71 19 46 19 107 0 153 -14 33 -14 41 0 75 19 49 19 108 0
154 -13 31 -13 40 0 71 19 45 19 111 0 156 -13 31 -13 40 0 71 19 46 19 107 0
153 -14 33 -14 41 0 75 19 49 19 108 0 154 -13 31 -13 40 0 71 19 46 19 116
-1 154 -14 28 -14 34 0 70 20 50 20 109 1 156 -14 33 -14 41 0 75 19 49 19
108 0 154 -13 31 -13 40 0 71 19 46 19 116 -1 154 -14 28 -14 34 0 70 20 50
20 109 1 156 -14 33 -14 41 0 75 19 49 19 108 0 154 -13 31 -13 40 0 71 19 46
19 116 -1 154 -14 28 -14 34 0 70 20 50 20 109 1 156 -14 33 -14 41 0 75 19
49 19 108 0 154 -13 31 -13 40 0 71 19 46 19 116 -1 154 -14 28 -14 34 0 70
20 50 20 108 1 157 -12 29 -13 45 -5 66 14 39 12 111 -4 151 -13 31 -13 39 0
70 17 42 18 119 0 160 -10 24 -10 36 0 65 18 47 17 113 0 155 -13 31 -13 39 0
70 18 44 18 116 0 160 -13 31 -13 39 0 70 18 44 18 122 0 157 -12 23 -12 32 0
65 17 50 17 115 0 158 -13 31 -13 39 0 70 18 44 18 116 0 160 -13 31 -13 39 0
70 18 44 18 122 0 157 -12 23 -12 32 0 65 17 50 17 115 0 158 -13 31 -13 39 0
70 18 44 18 116 0 160 -13 31 -13 39 0 70 18 44 18 122 -1 158 -12 24 -12 32
1 62 18 44 18 116 0 160 -13 31 -13 39 1 72 15 37 14 128 -2 166 -5 12 -3 17
8 17 8 0 36 9 63 20 47 20 64 38 103 109 28 51 31 61 31 100 0 31 6 46 27 66
15 14 36 25 46 25 9 0 22 10 28 23 10 20 75 77 88 77 3 0 24 -7 46 -15z
m11755 1 c0 -17 -51 -56 -74 -56 -29 0 -17 36 17 53 41 20 57 21 57 3z m-225
-10 c28 -12 35 -21 35 -42 0 -22 -3 -25 -12 -16 -7 7 -22 12 -34 12 -13 0 -26
5 -29 11 -4 6 -17 14 -29 19 -21 8 -21 8 4 18 14 6 26 11 28 11 1 1 18 -6 37
-13z m-11885 -16 c0 -10 -41 -30 -61 -30 -5 0 -9 9 -9 20 0 16 7 20 35 20 19
0 35 -5 35 -10z m7 -154 c-5 -17 -14 -39 -18 -48 -5 -10 -9 -23 -9 -29 0 -12
-29 -38 -42 -39 -5 0 -8 15 -8 33 0 17 -7 45 -15 60 -21 41 -12 52 49 53 l53
2 -10 -32z m12066 -8573 c3 -32 8 -67 12 -79 6 -20 3 -21 -65 -22 -60 0 -69 2
-59 14 6 8 9 23 6 34 -3 10 1 24 9 31 8 6 14 19 14 28 0 16 44 50 66 51 7 0
14 -24 17 -57z m-12135 -49 c-4 -3 -12 5 -18 18 -12 22 -12 22 6 6 10 -10 15
-20 12 -24z m147 -114 c3 -5 17 -10 29 -10 13 0 29 -7 36 -15 7 -8 17 -15 23
-15 12 0 36 -30 37 -46 0 -6 -14 -17 -30 -24 -24 -10 -39 -10 -73 -1 l-43 12
0 55 c0 51 7 66 21 44z m-122 -27 c3 -16 3 -41 0 -56 -5 -25 -9 -28 -32 -22
-14 4 -27 8 -29 9 -5 6 39 96 47 96 5 0 11 -12 14 -27z m12091 -9 c10 -4 16
-18 16 -35 0 -31 -3 -31 -72 -12 -26 7 -22 41 5 46 12 2 25 5 29 6 3 0 13 -2
22 -5z m-174 -69 c0 -22 -2 -24 -24 -14 -19 9 -22 14 -13 25 19 21 37 16 37
-11z m390 -118 c0 -2 -10 -12 -22 -23 l-23 -19 19 23 c18 21 26 27 26 19z"/>
</g>
</svg>
